<?xml version="1.0" encoding="UTF-8" standalone="no"?>
<!-- Generator: Adobe Illustrator 15.1.0, SVG Export Plug-In  -->

<svg
   xmlns:dc="http://purl.org/dc/elements/1.1/"
   xmlns:cc="http://creativecommons.org/ns#"
   xmlns:rdf="http://www.w3.org/1999/02/22-rdf-syntax-ns#"
   xmlns:svg="http://www.w3.org/2000/svg"
   xmlns="http://www.w3.org/2000/svg"
   xmlns:sodipodi="http://sodipodi.sourceforge.net/DTD/sodipodi-0.dtd"
   xmlns:inkscape="http://www.inkscape.org/namespaces/inkscape"
   version="1.1"
   x="0px"
   y="0px"
   width="16"
   height="16"
   viewBox="0 0 16 16"
   style="overflow:visible"
   xml:space="preserve"
   preserveAspectRatio="xMinYMid meet"
   id="svg3005"
   inkscape:version="0.48.2 r9819"
   sodipodi:docname="unread.svg"><metadata
   id="metadata3013"><rdf:RDF><cc:Work
       rdf:about=""><dc:format>image/svg+xml</dc:format><dc:type
         rdf:resource="http://purl.org/dc/dcmitype/StillImage" /><dc:title></dc:title></cc:Work></rdf:RDF></metadata><sodipodi:namedview
   pagecolor="#ffffff"
   bordercolor="#666666"
   borderopacity="1"
   objecttolerance="10"
   gridtolerance="10"
   guidetolerance="10"
   inkscape:pageopacity="0"
   inkscape:pageshadow="2"
   inkscape:window-width="1680"
   inkscape:window-height="988"
   id="namedview3011"
   showgrid="false"
   inkscape:zoom="19.666667"
   inkscape:cx="6"
   inkscape:cy="6"
   inkscape:window-x="-8"
   inkscape:window-y="-8"
   inkscape:window-maximized="1"
   inkscape:current-layer="svg3005" />
<defs
   id="defs3007">
</defs>
<path
   style="fill:#333333"
   d="M 1.333332,16 V 10.666667 C 0.5333332,10.666667 0,10.133333 0,9.3333333 v -8 C 0,0.5333333 0.5333332,0 1.333332,0 H 12 c 0.8,0 1.33332,0.5333333 1.33332,1.3333333 V 4 H 6.666668 c -0.8,0 -1.333336,0.5333333 -1.333336,1.3333333 V 12 c 0,0 0,0 0,0 l -4,4 z"
   id="path3027" /><path
   style="fill:#ff0000"
   d="M 14.66668,5.3333333 H 8 C 7.333332,5.3333333 6.666668,6 6.666668,6.6666667 V 10.666667 C 6.666668,11.333333 7.333332,12 8,12 h 2.666671 l 4.000009,4 V 12 C 15.33332,12 16,11.333333 16,10.666667 V 6.6666667 C 16,6 15.33332,5.3333333 14.66668,5.3333333 z"
   id="path3009" />
</svg>